<svg xmlns="http://www.w3.org/2000/svg" width="107.828" height="56.13" viewBox="0 0 107.828 56.13"><ellipse cx="53.914" cy="28.065" fill="#8993be" data-name="Ellipse 31" rx="53.914" ry="28.065"/><path fill="#232531" fill-rule="evenodd" d="M35.945,54.324l5.909-29.911H55.516c5.908.369,8.863,3.323,8.863,8.494,0,8.863-7.016,14.032-13.294,13.663H44.439l-1.477,7.755Zm9.97-13.294,1.847-11.078h4.8c2.585,0,4.431,1.108,4.431,3.323-.369,6.278-3.323,7.386-6.647,7.755H45.916Zm17.091,5.539,5.908-29.911h7.016l-1.477,7.754H81.1c5.909.369,8.124,3.323,7.386,7.016L85.9,46.569H78.516L81.1,32.906c.369-1.847.369-2.954-2.216-2.954H73.346L70.022,46.569Zm22.422,7.755,5.908-29.911H105c5.909.369,8.863,3.323,8.863,8.494,0,8.863-7.016,14.032-13.294,13.663H93.921l-1.477,7.755ZM95.4,41.03l1.847-11.078h4.8c2.585,0,4.431,1.108,4.431,3.323-.369,6.278-3.323,7.386-6.647,7.755H95.4Z" data-name="Path 289" transform="translate(-20.805 -9.642)"/></svg>